  0
SECTION
  2
HEADER
  9
$ACADVER
  1
AC1006
  9
$EXTMIN
 10
0.000000
 20
0.000000
 30
0.000000
  9
$EXTMAX
 10
1268.000000
 20
1113.000000
 30
0.000000
  0
ENDSEC
  0
SECTION
  2
ENTITIES
  0
POLYLINE
  8
0
 66
1
 70
1
  0
VERTEX
  8
0
 10
306.500000
 20
1112.433148
 42
-0.007964
  0
VERTEX
  8
0
 10
305.205928
 20
1112.263615
 42
-0.000669
  0
VERTEX
  8
0
 10
301.856250
 20
1111.883485
 42
-0.000890
  0
VERTEX
  8
0
 10
297.858805
 20
1111.442465
 42
-0.000688
  0
VERTEX
  8
0
 10
293.500000
 20
1110.975493
 42
0.018537
  0
VERTEX
  8
0
 10
271.487260
 20
1107.819073
 42
0.014394
  0
VERTEX
  8
0
 10
247.809305
 20
1102.815007
 42
0.014401
  0
VERTEX
  8
0
 10
224.475003
 20
1096.460961
 42
0.018636
  0
VERTEX
  8
0
 10
203.500000
 20
1089.231314
 42
0.043978
  0
VERTEX
  8
0
 10
152.852775
 20
1064.321293
 42
0.046525
  0
VERTEX
  8
0
 10
108.362136
 20
1031.335856
 42
0.046691
  0
VERTEX
  8
0
 10
70.870853
 20
990.810181
 42
0.044907
  0
VERTEX
  8
0
 10
40.995441
 20
943.522201
 42
0.022922
  0
VERTEX
  8
0
 10
28.360154
 20
915.815863
 42
0.021040
  0
VERTEX
  8
0
 10
17.911482
 20
886.273970
 42
0.019892
  0
VERTEX
  8
0
 10
9.484574
 20
854.353122
 42
0.016055
  0
VERTEX
  8
0
 10
2.918166
 20
819.500000
 42
0.022559
  0
VERTEX
  8
0
 10
1.223558
 20
804.015041
 42
0.009347
  0
VERTEX
  8
0
 10
0.271693
 20
782.969860
 42
0.009416
  0
VERTEX
  8
0
 10
0.107354
 20
761.558131
 42
0.018885
  0
VERTEX
  8
0
 10
0.934234
 20
744.669711
 42
0.034683
  0
VERTEX
  8
0
 10
10.733768
 20
682.373077
 42
0.031325
  0
VERTEX
  8
0
 10
29.266232
 20
619.811783
 42
0.029326
  0
VERTEX
  8
0
 10
56.845418
 20
556.228849
 42
0.023101
  0
VERTEX
  8
0
 10
93.760665
 20
490.862101
 42
0.032486
  0
VERTEX
  8
0
 10
163.546798
 20
394.183819
 42
0.023231
  0
VERTEX
  8
0
 10
253.187848
 20
295.344870
 42
0.021382
  0
VERTEX
  8
0
 10
360.225163
 20
196.634665
 42
0.017513
  0
VERTEX
  8
0
 10
482.500000
 20
100.324562
 42
0.000601
  0
VERTEX
  8
0
 10
488.609420
 20
95.861274
 42
0.000653
  0
VERTEX
  8
0
 10
494.562500
 20
91.535051
 42
0.000612
  0
VERTEX
  8
0
 10
499.672020
 20
87.841581
 42
0.003204
  0
VERTEX
  8
0
 10
502.500000
 20
85.830026
 42
-0.000422
  0
VERTEX
  8
0
 10
505.216560
 20
83.920398
 42
-0.000102
  0
VERTEX
  8
0
 10
509.703125
 20
80.759501
 42
-0.000105
  0
VERTEX
  8
0
 10
514.847656
 20
77.131863
 42
-0.000104
  0
VERTEX
  8
0
 10
520.000000
 20
73.495488
 42
0.006497
  0
VERTEX
  8
0
 10
552.048377
 20
51.485088
 42
0.004043
  0
VERTEX
  8
0
 10
590.173581
 20
26.467215
 42
0.000861
  0
VERTEX
  8
0
 10
629.193650
 20
1.406046
 42
0.143267
  0
VERTEX
  8
0
 10
634.000000
 20
0.000000
 42
0.143267
  0
VERTEX
  8
0
 10
638.806350
 20
1.406046
 42
0.000861
  0
VERTEX
  8
0
 10
677.826419
 20
26.467215
 42
0.004043
  0
VERTEX
  8
0
 10
715.951623
 20
51.485088
 42
0.006497
  0
VERTEX
  8
0
 10
748.000000
 20
73.495488
 42
-0.000104
  0
VERTEX
  8
0
 10
753.152344
 20
77.131863
 42
-0.000105
  0
VERTEX
  8
0
 10
758.296875
 20
80.759501
 42
-0.000102
  0
VERTEX
  8
0
 10
762.783440
 20
83.920398
 42
-0.000422
  0
VERTEX
  8
0
 10
765.500000
 20
85.830026
 42
0.009066
  0
VERTEX
  8
0
 10
806.186497
 20
115.494983
 42
0.005896
  0
VERTEX
  8
0
 10
852.147984
 20
151.160110
 42
0.005843
  0
VERTEX
  8
0
 10
898.016400
 20
188.510718
 42
0.007922
  0
VERTEX
  8
0
 10
938.500000
 20
223.373013
 42
0.026441
  0
VERTEX
  8
0
 10
1067.356462
 20
350.754877
 42
0.039007
  0
VERTEX
  8
0
 10
1164.867969
 20
476.317015
 42
0.045010
  0
VERTEX
  8
0
 10
1230.650312
 20
598.943835
 42
0.064631
  0
VERTEX
  8
0
 10
1263.887599
 20
717.500000
 42
0.008506
  0
VERTEX
  8
0
 10
1266.029514
 20
734.242841
 42
0.012592
  0
VERTEX
  8
0
 10
1267.286546
 20
748.988108
 42
0.012314
  0
VERTEX
  8
0
 10
1267.816419
 20
764.020447
 42
0.007654
  0
VERTEX
  8
0
 10
1267.733475
 20
781.669711
 42
0.013242
  0
VERTEX
  8
0
 10
1266.730568
 20
803.227143
 42
0.017341
  0
VERTEX
  8
0
 10
1264.611869
 20
822.832281
 42
0.016313
  0
VERTEX
  8
0
 10
1261.018996
 20
843.158664
 42
0.009839
  0
VERTEX
  8
0
 10
1255.505755
 20
867.000000
 42
0.047740
  0
VERTEX
  8
0
 10
1231.605060
 20
934.066963
 42
0.055108
  0
VERTEX
  8
0
 10
1196.269607
 20
991.979495
 42
0.056594
  0
VERTEX
  8
0
 10
1150.061877
 20
1039.535350
 42
0.055202
  0
VERTEX
  8
0
 10
1094.000000
 20
1075.978835
 42
0.021393
  0
VERTEX
  8
0
 10
1067.392346
 20
1087.967995
 42
0.021790
  0
VERTEX
  8
0
 10
1040.018571
 20
1097.558601
 42
0.021027
  0
VERTEX
  8
0
 10
1011.012063
 20
1105.007607
 42
0.017244
  0
VERTEX
  8
0
 10
979.500000
 20
1110.574013
 42
0.015832
  0
VERTEX
  8
0
 10
973.663620
 20
1111.210894
 42
0.004478
  0
VERTEX
  8
0
 10
964.541599
 20
1111.832821
 42
0.004501
  0
VERTEX
  8
0
 10
954.201630
 20
1112.351433
 42
0.004698
  0
VERTEX
  8
0
 10
944.000000
 20
1112.675100
 42
0.000000
  0
VERTEX
  8
0
 10
919.500000
 20
1113.222067
 42
0.000000
  0
VERTEX
  8
0
 10
891.000000
 20
1108.511531
 42
0.011097
  0
VERTEX
  8
0
 10
856.229900
 20
1101.968868
 42
0.020977
  0
VERTEX
  8
0
 10
828.596436
 20
1094.908875
 42
0.023878
  0
VERTEX
  8
0
 10
804.178988
 20
1086.276167
 42
0.020757
  0
VERTEX
  8
0
 10
779.500000
 20
1074.985174
 42
0.036032
  0
VERTEX
  8
0
 10
743.503594
 20
1053.279161
 42
0.032670
  0
VERTEX
  8
0
 10
709.728650
 20
1025.968043
 42
0.031459
  0
VERTEX
  8
0
 10
678.614258
 20
993.402019
 42
0.028143
  0
VERTEX
  8
0
 10
650.566456
 20
956.000000
 42
0.001823
  0
VERTEX
  8
0
 10
646.443124
 20
949.754540
 42
0.002143
  0
VERTEX
  8
0
 10
642.583830
 20
943.806950
 42
0.001880
  0
VERTEX
  8
0
 10
639.364086
 20
938.756430
 42
0.013314
  0
VERTEX
  8
0
 10
637.875918
 20
936.257702
 42
-0.025015
  0
VERTEX
  8
0
 10
636.856322
 20
934.633406
 42
-0.032444
  0
VERTEX
  8
0
 10
635.757301
 20
933.261579
 42
-0.034023
  0
VERTEX
  8
0
 10
634.728757
 20
932.279135
 42
-0.175380
  0
VERTEX
  8
0
 10
634.000000
 20
932.015404
 42
-0.175380
  0
VERTEX
  8
0
 10
633.271243
 20
932.279135
 42
-0.034023
  0
VERTEX
  8
0
 10
632.242699
 20
933.261579
 42
-0.032444
  0
VERTEX
  8
0
 10
631.143678
 20
934.633406
 42
-0.025015
  0
VERTEX
  8
0
 10
630.124082
 20
936.257702
 42
0.013314
  0
VERTEX
  8
0
 10
628.635914
 20
938.756430
 42
0.001880
  0
VERTEX
  8
0
 10
625.416170
 20
943.806950
 42
0.002143
  0
VERTEX
  8
0
 10
621.556876
 20
949.754540
 42
0.001823
  0
VERTEX
  8
0
 10
617.433544
 20
956.000000
 42
0.028143
  0
VERTEX
  8
0
 10
589.385742
 20
993.402019
 42
0.031459
  0
VERTEX
  8
0
 10
558.271350
 20
1025.968043
 42
0.032670
  0
VERTEX
  8
0
 10
524.496406
 20
1053.279161
 42
0.036032
  0
VERTEX
  8
0
 10
488.500000
 20
1074.985174
 42
0.020134
  0
VERTEX
  8
0
 10
464.190667
 20
1086.143664
 42
0.023857
  0
VERTEX
  8
0
 10
440.383755
 20
1094.628381
 42
0.021052
  0
VERTEX
  8
0
 10
413.547035
 20
1101.554141
 42
0.011074
  0
VERTEX
  8
0
 10
379.706552
 20
1108.003210
 42
0.002174
  0
VERTEX
  8
0
 10
360.472951
 20
1111.143033
 42
0.015380
  0
VERTEX
  8
0
 10
351.082745
 20
1112.339298
 42
0.020243
  0
VERTEX
  8
0
 10
342.656325
 20
1112.807220
 42
0.005392
  0
VERTEX
  8
0
 10
329.206552
 20
1112.863818
 42
0.001264
  0
VERTEX
  8
0
 10
321.127610
 20
1112.790260
 42
0.001833
  0
VERTEX
  8
0
 10
313.995050
 20
1112.681133
 42
0.000922
  0
VERTEX
  8
0
 10
307.941756
 20
1112.555155
 42
0.030895
  0
SEQEND
  0
ENDSEC
  0
EOF
